HIERARCHY
ROOT joint_Root
{
	OFFSET 0.0 0.0 0.0
	CHANNELS 6 Xposition Yposition Zposition Zrotation Xrotation Yrotation 
	JOINT Hips
	{
		OFFSET -17.1583 93.1646 452.98
		CHANNELS 6 Xposition Yposition Zposition Zrotation Xrotation Yrotation 
		JOINT Spine
		{
			OFFSET 15.7357 0.0 0.0
			CHANNELS 6 Xposition Yposition Zposition Zrotation Xrotation Yrotation 
			JOINT Chest
			{
				OFFSET 8.98455 -0.406207 0.0
				CHANNELS 6 Xposition Yposition Zposition Zrotation Xrotation Yrotation 
				JOINT Neck
				{
					OFFSET 16.3773 0.0 0.0
					CHANNELS 6 Xposition Yposition Zposition Zrotation Xrotation Yrotation 
					JOINT Head
					{
						OFFSET 6.45672 0.0 0.0
						CHANNELS 6 Xposition Yposition Zposition Zrotation Xrotation Yrotation 
						End Site
						{
							OFFSET 0.0 0.0 0.0
						}
					}
				}
				JOINT Shoulder_L
				{
					OFFSET 12.9942 -0.242716 4.98039
					CHANNELS 6 Xposition Yposition Zposition Zrotation Xrotation Yrotation 
					JOINT UpperArm_L
					{
						OFFSET 5.34809 0.0 0.0
						CHANNELS 6 Xposition Yposition Zposition Zrotation Xrotation Yrotation 
						JOINT LowerArm_L
						{
							OFFSET 24.3286 1.87007e-05 0.0
							CHANNELS 6 Xposition Yposition Zposition Zrotation Xrotation Yrotation 
							JOINT Hand_L
							{
								OFFSET 22.2916 0.0 0.0
								CHANNELS 6 Xposition Yposition Zposition Zrotation Xrotation Yrotation 
								End Site
								{
									OFFSET 0.0 0.0 0.0
								}
							}
						}
					}
				}
				JOINT Shoulder_R
				{
					OFFSET 12.9945 -0.242716 -4.98039
					CHANNELS 6 Xposition Yposition Zposition Zrotation Xrotation Yrotation 
					JOINT UpperArm_R
					{
						OFFSET -5.34813 0.0 0.0
						CHANNELS 6 Xposition Yposition Zposition Zrotation Xrotation Yrotation 
						JOINT LowerArm_R
						{
							OFFSET -24.3289 0.000322201 0.0
							CHANNELS 6 Xposition Yposition Zposition Zrotation Xrotation Yrotation 
							JOINT Hand_R
							{
								OFFSET -22.2915 -0.000108084 0.0
								CHANNELS 6 Xposition Yposition Zposition Zrotation Xrotation Yrotation 
								End Site
								{
									OFFSET 0.0 0.0 0.0
								}
							}
						}
					}
				}
			}
		}
		JOINT UpperLeg_L
		{
			OFFSET -2.19248 -6.46944 0.0
			CHANNELS 6 Xposition Yposition Zposition Zrotation Xrotation Yrotation 
			JOINT LowerLeg_L
			{
				OFFSET 39.0811 0.0 -1.23785e-05
				CHANNELS 6 Xposition Yposition Zposition Zrotation Xrotation Yrotation 
				JOINT Foot_L
				{
					OFFSET 40.9854 0.0 -1.26872e-05
					CHANNELS 6 Xposition Yposition Zposition Zrotation Xrotation Yrotation 
					JOINT Toes_L
					{
						OFFSET 11.7543 0.0 0.0
						CHANNELS 6 Xposition Yposition Zposition Zrotation Xrotation Yrotation 
						End Site
						{
							OFFSET 0.0 0.0 0.0
						}
					}
				}
			}
		}
		JOINT UpperLeg_R
		{
			OFFSET -2.19251 6.46944 0.0
			CHANNELS 6 Xposition Yposition Zposition Zrotation Xrotation Yrotation 
			JOINT LowerLeg_R
			{
				OFFSET -39.0811 -0.00228153 -0.0401928
				CHANNELS 6 Xposition Yposition Zposition Zrotation Xrotation Yrotation 
				JOINT Foot_R
				{
					OFFSET -40.9854 0.0 0.0
					CHANNELS 6 Xposition Yposition Zposition Zrotation Xrotation Yrotation 
					JOINT Toes_R
					{
						OFFSET -11.7543 0.0 0.0
						CHANNELS 6 Xposition Yposition Zposition Zrotation Xrotation Yrotation 
						End Site
						{
							OFFSET 0.0 0.0 0.0
						}
					}
				}
			}
		}
	}
}
MOTION
Frames:	8
Frame Time:	0.0333333
0.000000 0.000000 0.000000 0.000000 0.000000 -0.000000 -2.346390 84.888400 6.491670 84.150500 -1.437500 -6.420060 15.735700 0.000005 -0.000001 88.899500 82.562200 -85.819600 8.984550 -0.406207 -0.000000 7.122430 -0.301781 6.171890 16.377300 -0.000001 -0.000001 -7.207610 4.202880 -1.642390 6.456720 -0.000001 -0.000000 -16.361000 4.988710 -1.158040 12.994200 -0.242716 4.980390 -93.536000 10.000700 -70.412600 5.348090 -0.000007 -0.000001 -51.240300 -14.925000 10.784800 24.328600 0.000019 0.000005 3.398820 35.613900 -5.825830 22.291600 -0.000001 0.000005 -1.111690 4.847900 10.420400 12.994500 -0.242716 -4.980390 88.494100 4.640760 -71.999400 -5.348130 -0.000001 -0.000004 -53.791000 1.768640 -1.801730 -24.328900 0.000322 -0.000009 1.692180 3.909130 -23.782200 -22.291500 -0.000108 -0.000004 0.297216 5.234800 1.943460 -2.192480 -6.469440 -0.000000 -173.333000 -3.747610 -40.245200 39.081100 -0.000007 -0.000012 0.073229 0.027748 110.745000 40.985400 -0.000006 -0.000013 -5.181850 -1.680030 -45.838400 11.754300 -0.000000 0.000003 0.002485 0.081089 -13.288200 -2.192510 6.469440 -0.000001 -172.129000 1.736950 165.626000 -39.081100 -0.002282 -0.040193 -0.056279 0.053681 47.959400 -40.985400 0.000008 0.000006 -5.951920 0.660790 -89.065100 -11.754300 -0.000006 -0.000006 0.001715 0.130587 -11.277700
0.000000 0.000000 0.000000 0.000000 0.000000 -0.000000 -1.290460 87.842600 16.542200 87.989500 -3.638210 -8.904180 15.735700 0.000005 -0.000001 98.478600 83.488800 -97.242300 8.984550 -0.406207 -0.000000 5.097010 1.887250 2.385930 16.377300 -0.000001 -0.000001 -6.805240 3.354690 -0.812859 6.456720 -0.000001 -0.000000 -16.154300 3.010990 -0.374334 12.994200 -0.242716 4.980390 -93.227100 8.835530 -69.842400 5.348090 -0.000007 -0.000001 -47.686400 -17.291100 16.266600 24.328600 0.000019 0.000005 -0.000970 37.610000 -0.000005 22.291600 -0.000001 0.000005 -5.439310 4.738400 12.476600 12.994500 -0.242716 -4.980390 88.797700 3.833780 -72.575800 -5.348130 -0.000001 -0.000004 -55.430600 7.920130 -3.136630 -24.328900 0.000322 -0.000009 -1.046850 -1.140010 -42.297500 -22.291500 -0.000108 -0.000004 8.505320 5.449360 -4.395070 -2.192480 -6.469440 -0.000000 -179.554000 -3.324570 -48.062100 39.081100 -0.000007 -0.000012 -0.016330 -0.003305 101.484000 40.985400 -0.000006 -0.000013 -5.129560 -2.465470 -53.996000 11.754300 -0.000000 0.000003 0.002437 0.071877 -13.661600 -2.192510 6.469440 -0.000001 -178.704000 3.727090 174.081000 -39.081100 -0.002282 -0.040193 -0.063707 0.089635 36.774500 -40.985400 0.000008 0.000006 -6.548660 4.494580 -78.096100 -11.754300 -0.000006 -0.000006 -0.003848 -0.049846 -18.600600
0.000000 0.000000 0.000000 0.000000 0.000000 -0.000000 -0.267714 91.148600 26.504700 91.248400 -6.715730 -12.510100 15.735700 0.000005 -0.000001 115.025000 84.615800 -115.525000 8.984550 -0.406207 -0.000000 2.018110 4.577260 -1.081680 16.377300 -0.000001 -0.000001 -6.141110 2.696190 -0.040562 6.456720 -0.000001 -0.000000 -14.550300 1.491310 -0.604888 12.994200 -0.242716 4.980390 -92.497900 6.733770 -69.591700 5.348090 -0.000007 -0.000001 -45.636300 -17.346400 21.226600 24.328600 0.000019 0.000005 -0.000084 41.298500 -0.000006 22.291600 -0.000001 0.000005 -8.536670 4.535430 16.026800 12.994500 -0.242716 -4.980390 89.428600 1.944930 -73.630900 -5.348130 -0.000001 -0.000004 -59.465800 8.140850 -4.071590 -24.328900 0.000322 -0.000009 -5.884030 -4.110270 -55.111500 -22.291500 -0.000108 -0.000004 13.086900 5.660630 -16.030600 -2.192480 -6.469440 -0.000000 176.103000 -2.736670 -53.254700 39.081100 -0.000007 -0.000012 0.014003 -0.000926 86.180800 40.985400 -0.000006 -0.000013 -5.440810 -2.071080 -58.818600 11.754300 -0.000000 0.000003 0.002484 0.080827 -13.298800 -2.192510 6.469440 -0.000001 175.680000 5.963460 178.845000 -39.081100 -0.002282 -0.040193 -0.009690 0.026670 25.985600 -40.985400 0.000008 0.000006 -3.250480 5.763810 -59.617400 -11.754300 -0.000006 -0.000006 -0.042071 -0.268262 -27.598900
0.000000 0.000000 0.000000 0.000000 0.000000 -0.000000 -0.153260 93.791400 36.723300 91.057700 -7.319440 -14.203500 15.735700 0.000005 -0.000001 128.797000 84.974700 -129.598000 8.984550 -0.406207 -0.000000 0.116538 6.349170 -1.609550 16.377300 -0.000001 -0.000001 -5.220970 2.351520 0.364937 6.456720 -0.000001 -0.000000 -12.863200 -0.129559 -0.865776 12.994200 -0.242716 4.980390 -92.250400 5.774990 -68.666900 5.348090 -0.000007 -0.000001 -43.418500 -15.652200 23.776100 24.328600 0.000019 0.000005 -0.000046 45.078000 -0.000007 22.291600 -0.000001 0.000005 -8.717730 4.370080 18.693000 12.994500 -0.242716 -4.980390 89.551500 1.591360 -74.258200 -5.348130 -0.000001 -0.000004 -61.544100 8.279580 -5.962500 -24.328900 0.000322 -0.000009 -9.096440 -4.664910 -63.073000 -22.291500 -0.000108 -0.000004 15.091800 5.678480 -19.341800 -2.192480 -6.469440 -0.000000 177.742000 -1.415190 -52.647300 39.081100 -0.000007 -0.000012 0.033655 -0.014204 67.110300 40.985400 -0.000006 -0.000013 -6.095710 2.216330 -61.701400 11.754300 -0.000000 0.000003 0.002462 0.075410 -13.518400 -2.192510 6.469440 -0.000001 174.904000 9.257570 -176.635000 -39.081100 -0.002282 -0.040193 0.025286 -0.065155 18.627900 -40.985400 0.000008 0.000006 -0.538474 5.404030 -39.760400 -11.754300 -0.000006 -0.000006 -0.009836 -0.102406 -20.745300
0.000000 0.000000 0.000000 0.000000 0.000000 -0.000000 -0.674121 95.044200 47.363700 88.604600 -5.906220 -13.380100 15.735700 0.000005 -0.000001 134.737000 84.785900 -134.738000 8.984550 -0.406207 -0.000000 -0.355002 7.338410 0.021299 16.377300 -0.000001 -0.000001 -4.340970 1.802080 0.170850 6.456720 -0.000001 -0.000000 -11.053100 -1.904400 -0.679444 12.994200 -0.242716 4.980390 -92.553700 6.301790 -67.887300 5.348090 -0.000007 -0.000001 -39.747000 -14.764800 24.732200 24.328600 0.000019 0.000005 -0.000424 43.198300 -0.000006 22.291600 -0.000001 0.000005 -4.690940 4.180570 21.540000 12.994500 -0.242716 -4.980390 89.333800 2.402590 -74.496600 -5.348130 -0.000001 -0.000004 -61.241900 8.934360 -6.773060 -24.328900 0.000322 -0.000009 -8.277980 -3.404130 -67.797400 -22.291500 -0.000108 -0.000004 14.649700 5.673870 -18.055400 -2.192480 -6.469440 -0.000000 -177.635000 0.055088 -46.476600 39.081100 -0.000007 -0.000012 -0.001064 0.001028 46.076800 40.985400 -0.000006 -0.000013 -5.938980 6.683790 -66.111600 11.754300 -0.000000 0.000003 0.002452 0.073850 -13.581600 -2.192510 6.469440 -0.000001 176.569000 12.789400 -172.524000 -39.081100 -0.002282 -0.040193 0.071443 -0.192030 19.531600 -40.985400 0.000008 0.000006 -0.699834 0.248156 -26.010300 -11.754300 -0.000006 -0.000006 -0.000589 0.177056 -9.391450
0.000000 0.000000 0.000000 0.000000 0.000000 -0.000000 -1.009340 94.766800 58.068100 86.999400 -5.439310 -12.451000 15.735700 0.000005 -0.000001 139.470000 84.441100 -139.010000 8.984550 -0.406207 -0.000000 -0.571962 8.415000 0.963314 16.377300 -0.000001 -0.000001 -4.044620 1.128830 0.126919 6.456720 -0.000001 -0.000000 -9.354490 -3.320550 -0.434072 12.994200 -0.242716 4.980390 -92.747100 6.793500 -67.920800 5.348090 -0.000007 -0.000001 -37.729300 -15.638100 24.411600 24.328600 0.000019 0.000005 -0.000167 36.221300 -0.000004 22.291600 -0.000001 0.000005 7.174290 3.801050 26.865100 12.994500 -0.242716 -4.980390 89.415300 2.189660 -75.047100 -5.348130 -0.000001 -0.000004 -62.274900 9.455910 -5.753490 -24.328900 0.000322 -0.000009 -6.926780 -2.802830 -68.069300 -22.291500 -0.000108 -0.000004 14.982500 5.678060 -18.985800 -2.192480 -6.469440 -0.000000 -174.695000 1.091250 -39.294300 39.081100 -0.000007 -0.000012 -0.024137 0.048638 26.393900 40.985400 -0.000006 -0.000013 -4.057680 9.105290 -71.520400 11.754300 -0.000000 0.000003 0.002462 0.075381 -13.519600 -2.192510 6.469440 -0.000001 179.012000 9.812780 -172.139000 -39.081100 -0.002282 -0.040193 0.108645 -0.178322 30.572600 -40.985400 0.000008 0.000006 -1.282380 -7.548720 -28.263600 -11.754300 -0.000006 -0.000006 -0.000002 0.167709 -9.771130
0.000000 0.000000 0.000000 0.000000 0.000000 -0.000000 -1.202820 93.377400 69.105600 86.701200 -4.104000 -10.615700 15.735700 0.000005 -0.000001 134.788000 84.185400 -134.233000 8.984550 -0.406207 -0.000000 0.457891 8.154710 1.077150 16.377300 -0.000001 -0.000001 -4.292040 0.401933 0.138410 6.456720 -0.000001 -0.000000 -9.221350 -4.320610 -0.015412 12.994200 -0.242716 4.980390 -92.658000 6.750430 -68.448700 5.348090 -0.000007 -0.000001 -39.450100 -17.467800 21.734800 24.328600 0.000019 0.000005 -0.000021 31.817300 -0.000003 22.291600 -0.000001 0.000005 21.995800 3.640270 29.112700 12.994500 -0.242716 -4.980390 89.594600 1.545350 -75.298700 -5.348130 -0.000001 -0.000004 -64.336200 10.450900 -3.474330 -24.328900 0.000322 -0.000009 -6.840000 -3.103840 -65.701000 -22.291500 -0.000108 -0.000004 14.929000 5.674980 -18.196200 -2.192480 -6.469440 -0.000000 -173.923000 2.190530 -33.906200 39.081100 -0.000007 -0.000012 -0.035828 0.116042 17.158000 40.985400 -0.000006 -0.000013 -6.212330 10.148800 -74.304700 11.754300 -0.000000 0.000003 0.002461 0.075172 -13.528000 -2.192510 6.469440 -0.000001 -178.171000 6.323960 -171.684000 -39.081100 -0.002282 -0.040193 0.126227 -0.135170 42.290600 -40.985400 0.000008 0.000006 -1.770560 -9.023890 -31.727400 -11.754300 -0.000006 -0.000006 -0.000179 0.170624 -9.652740
0.000000 0.000000 0.000000 0.000000 0.000000 -0.000000 -1.123980 91.027900 80.100300 87.824100 -1.622090 -8.621840 15.735700 0.000005 -0.000001 123.091000 84.107000 -122.813000 8.984550 -0.406207 -0.000000 2.105730 6.416710 0.438388 16.377300 -0.000001 -0.000001 -4.675090 -0.327507 -0.272093 6.456720 -0.000001 -0.000000 -10.493900 -4.911460 0.647655 12.994200 -0.242716 4.980390 -92.726900 7.208220 -69.213200 5.348090 -0.000007 -0.000001 -42.934700 -18.958000 16.826000 24.328600 0.000019 0.000005 -0.000002 31.082000 -0.000003 22.291600 -0.000001 0.000005 28.496800 3.680320 28.606000 12.994500 -0.242716 -4.980390 89.570500 1.597810 -74.953700 -5.348130 -0.000001 -0.000004 -65.889300 11.124800 -0.182171 -24.328900 0.000322 -0.000009 -6.114740 -3.343560 -61.421900 -22.291500 -0.000108 -0.000004 11.337500 5.668850 -17.106200 -2.192480 -6.469440 -0.000000 -177.173000 1.608240 -32.939100 39.081100 -0.000007 -0.000012 0.062338 -0.144974 23.267500 40.985400 -0.000006 -0.000013 -2.127450 10.442200 -78.173900 11.754300 -0.000000 0.000003 0.002264 0.058677 -14.196800 -2.192510 6.469440 -0.000001 -178.239000 7.469110 -173.611000 -39.081100 -0.002282 -0.040193 0.224108 -0.152584 55.363700 -40.985400 0.000008 0.000006 -2.240320 -6.870730 -30.924700 -11.754300 -0.000006 -0.000006 -0.000477 0.175338 -9.461280
